/* XPM */
static char *_a31a4edfb644b6aaa4219bf012e8ee8dMPHhESzWT3bnCSd[] = {
/* columns rows colors chars-per-pixel */
"64 64 218 2 ",
"   c #111212",
".  c #141415",
"X  c #171618",
"o  c #171718",
"O  c #18161A",
"+  c #1C1B1C",
"@  c #251A17",
"#  c #231C1C",
"$  c #301E1A",
"%  c #29221E",
"&  c #33231E",
"*  c #1E1E21",
"=  c #231E21",
"-  c #2A1E21",
";  c #1F2122",
":  c #232224",
">  c #2B2424",
",  c #2D2926",
"<  c #252629",
"1  c #292729",
"2  c #25292B",
"3  c #2C2A2B",
"4  c #322625",
"5  c #332927",
"6  c #3B2A25",
"7  c #30252B",
"8  c #332B2B",
"9  c #3A2E2C",
"0  c #36312D",
"q  c #3C322E",
"w  c #2E2F33",
"e  c #332F31",
"r  c #2E3133",
"t  c #343334",
"y  c #3C3333",
"u  c #3F3A37",
"i  c #3B3739",
"p  c #3C3A3A",
"a  c #43322D",
"s  c #49322B",
"d  c #48362D",
"f  c #433533",
"g  c #463734",
"h  c #443935",
"j  c #4B3A35",
"k  c #443B3B",
"l  c #4A3D3B",
"z  c #553D34",
"x  c #523E3A",
"c  c #46403E",
"v  c #4D413D",
"b  c #554136",
"n  c #54423D",
"m  c #5C453D",
"M  c #61463D",
"N  c #3F3D40",
"B  c #463E42",
"V  c #3C4043",
"C  c #454343",
"Z  c #4C4343",
"A  c #4A4749",
"S  c #4C4C4D",
"D  c #534543",
"F  c #5B4741",
"G  c #544946",
"H  c #5A4A44",
"J  c #544B4A",
"K  c #5B4D4A",
"L  c #56514E",
"P  c #5B514E",
"I  c #4B4F51",
"U  c #545253",
"Y  c #5C5453",
"T  c #585759",
"R  c #5B5A5B",
"E  c #634B44",
"W  c #664E48",
"Q  c #63524B",
"!  c #6B534C",
"~  c #735449",
"^  c #635553",
"/  c #645955",
"(  c #6C5B56",
")  c #645D5C",
"_  c #6A5D5C",
"`  c #765D56",
"'  c #6C615F",
"]  c #7A645B",
"[  c #5D5E60",
"{  c #5E6263",
"}  c #6C6463",
"|  c #686567",
" . c #776966",
".. c #746B6A",
"X. c #76706C",
"o. c #726D72",
"O. c #767577",
"+. c #80665F",
"@. c #89716B",
"#. c #0A4F9A",
"$. c #225D9B",
"%. c #034BA7",
"&. c #0B56AF",
"*. c #1356A9",
"=. c #0354B3",
"-. c #0354BA",
";. c #035CBD",
":. c #0B5ABA",
">. c #1660AA",
",. c #0460BC",
"<. c #1967B9",
"1. c #2368B6",
"2. c #2B6DBE",
"3. c #326CB1",
"4. c #306CB2",
"5. c #3775B8",
"6. c #7E7E81",
"7. c #4E7CB8",
"8. c #0657C4",
"9. c #035DC4",
"0. c #0A5DC4",
"q. c #035DC9",
"w. c #0362C5",
"e. c #0B63C2",
"r. c #0E6AC7",
"t. c #0364CB",
"y. c #0A65CB",
"u. c #046ACD",
"i. c #0A6CCD",
"p. c #1569C8",
"a. c #1E71C1",
"s. c #0464D1",
"d. c #056CD3",
"f. c #0A6CD3",
"g. c #0969D6",
"h. c #146ED2",
"j. c #0572D6",
"k. c #0A71D5",
"l. c #0573D8",
"z. c #0C73DB",
"x. c #067BDD",
"c. c #0B7BDE",
"v. c #1273D9",
"b. c #3177C6",
"n. c #0C7CE2",
"m. c #1179E1",
"M. c #487BC2",
"N. c #4380BC",
"B. c #7C99BF",
"V. c #0881E6",
"C. c #4C86C4",
"Z. c #6896C9",
"A. c #739AD0",
"S. c #7AA7D8",
"D. c #79ACEB",
"F. c #848486",
"G. c #8A8B8C",
"H. c #8D8E90",
"J. c #928C92",
"K. c #999698",
"L. c #A1979A",
"P. c #9FA9BF",
"I. c #A6A4A6",
"U. c #ACACAE",
"Y. c #B1ABAF",
"T. c #ACAFB4",
"R. c #AEB2BA",
"E. c #B7B6B7",
"W. c #BCBCBC",
"Q. c #90AACD",
"!. c #96B5D7",
"~. c #AEB2C4",
"^. c #B9BCC6",
"/. c #9AB8E5",
"(. c #A2B8E7",
"). c #C6BFC9",
"_. c #BFC2CB",
"`. c #B4C2DD",
"'. c #9BC3EA",
"]. c #A8C4E6",
"[. c #B4CBE8",
"{. c #BBD4EA",
"}. c #B9CEF3",
"|. c #B6D5F3",
" X c #C4C4C4",
".X c #C3C5CC",
"XX c #C7C8CD",
"oX c #CCCDCC",
"OX c #D1CDCE",
"+X c #CED1CD",
"@X c #D4D0CF",
"#X c #C5C6D5",
"$X c #CCCDD2",
"%X c #CBCDDB",
"&X c #D1CDD3",
"*X c #CDD1D4",
"=X c #CAD5DA",
"-X c #CDD3DC",
";X c #D4D4D5",
":X c #D8D7D5",
">X c #D6D8D6",
",X c #D8D9D6",
"<X c #D5D6D9",
"1X c #D9D7DB",
"2X c #D6D9D9",
"3X c #DBDBDB",
"4X c gainsboro",
"5X c gray87",
"6X c #E1DEDE",
"7X c #DEE0DF",
"8X c #E1E1DF",
"9X c #C8D7E7",
"0X c #D2D9E5",
"qX c #DBDEE1",
"wX c #DDDEE1",
"eX c #CDDBF0",
"rX c #DEE1E1",
"tX c #E0E0E1",
/* pixels */
"5X5XtX5X5X5X5X5X5X5X5XrX5X5X7X7X7X5X5X5X5X5XtX5X5X5X5X5X5X5XwXwX<X5XwX7X5XwXwXwX5X5X5X5X5X5X5X5X5X5X5X5X5X5X5X5X5X5X5X5X5X5X5X X",
"5X5XtX5X5X5XtX5X5X5X5X7X5X5X7X7X7X5X5X5X5X5X5X5X5X5X5X5X5XqXqX;XH.;XwX<XF.;XwXwX5X5X5X5X5X5X5X5X5X5X5X5X5X5X5X5X5X5X5X5X5X5X5X X",
"7X7X7X5X5X5X5X5X5X5X5X5X5X5X5X5XtX5X5X5X7X7X5X5X5X5X5X5X5X2XW.| A p XX5X[ U 5XwX5X5X5X5X5X5X5X5X5X5X5X5X5X5X5X5X5X5X5X5X5X5X5X X",
"5XrX5X5X5X5X5X5X5X5X5X5X5X5X5X7X5X5X5X5X7X7X7X5X7X7X7X5X5X{ 2 < : 3 S 5XG.w <XrX5XrX5X5X5X5X5X5X5X5X5X5X5X5X5X5X5X5X5X5X5X5X5X X",
"5X5X5X5X5X5X5X5X5X5X5X5X5X5X5X5X5X5X5X5X5X5X7X5X5XwX3X;X*X< ; ; * * r G.* < 6.G.rX3X7X5X5X5X5X5X5X5X5X5X5X5X5X5X5X5X5X5X5X5X5X X",
"5X5X5X5X5X5X5X5X5X5X5X5X5X5X5X5X5X5X5X5X5X5X5X6X5XtXI.V I T ; * + O + + + : T o.S { >X5X5X5X5X5X5X5X5X5X5X5X5X5X5X5X5X5X5X5X5X X",
"5X5X5X5X5X5X5X5X5X5X5X5X5X5X5X5X5X5X5X5X5X5X5X5XwX2XT.r ; + + . O O X X X ; : ; + i >X5X5X5X5X5X5X5X5X5X5X5X5X5X5X5X5X5X5X5X5X X",
"5X5X5X5X5X5X5X5X5X5X5X5X5X5X5X5X5X5X5X5X5X5X5XwXqXF.2 2 * + O O . O O O O . 3 < S 3X5X5X5X5X5X5X5X5X5X5X5X5X5X5X5X5X5X5X5X5X5X X",
"5X5X5X5X5X5X5X5X5X5X5X5X5X5X5X5X5X5X5X5X5X5X5XwXF.; p 2 X + + O X + O + X O < F.,X5X5X5X5X5X5X5X5X5X5X5X5X5XtX5X5X5X5X5X5X5X5X X",
"5X5X5X5X5X5X5X5X5X5X5X5X5X5X5X5X5X5X5XwX5X5X5XT 2 S | t < : < * : * * + + N  X5X5X5X5X5X5X5X5X5X5X5X5X5X5X5X5X5X5X5X5X5X5X5X5X X",
"5X5X5X5X5X5X5X5X5X5X5X5X5X5X5X5X5X5X5X5X7X5X;XN p C 3 : < : < + : : : * < XX5X5X5X5X5X5X5X5X5X5X5X5X5X5X5X5X5X5X5X5X5X5X5X5X5X X",
"5X5X5X5X5X5X5X5X5X5X5X5X5X5X5X5X5X5X5X5X3X5XU.;XU.3 : 1 = < : : * : : * : U >X2X5X5X5X5X5X5X5X5X5X5X5X5X5X5X5X5X5X5X5X5X5X5X5X X",
"5X5X5X5X5X5X5X5X5X5X5X5X5X5X5X5X5X5X5X5X3XrXwXE.r : 2 : : : * * < : < < : < O.3X5X5X5X5X5X5X5X5X5X5X5X5X5X5X5X5X5X5X5X5X5X5X5X X",
"5X5X5X5X5X5X5X5X5X5X5X5X5X5X5X5X5XwX5X3XqX3XT.w : : < < : + + * + + * : : < < R ;X3X5X5X5X5X5X5X5X5X5X5X5X5X5X2X5X5X5X5X5X5X5X X",
"5X5X5X5X5X5X5X5X5X5X5X5X5X5X5X5X5XwX5XwX3XR.2 < : < : : # : > = : : + + + : : 3 U <X5X5X5X5X5X5X5X5X5X5X5X5X5X5X5X5X5X5X2X5X5X X",
"5X5X5X5X5X5X5X5X5X5X5X5X5X5X5X5X5XwX5X3X.Xr 2 < : : : : > 8 8 , 8 8 , > # : + : < B.5X5X5X5X5X5X5X5X5X5X5X5X5X5X5X5X5X5X5X5X3X X",
"5X5X5X5X5X5X5X5X5X5X5X5X5X5X5X5X5X5XwXqXo.2 < * : , u l Z J J K J D D Z k 8 , : : 2 XX3X2X5X5X5X5X5X5X5X5X5X5X5X5X5X5X5X5X5X5X X",
"5X5X5X5X5X5X5X5X5X5X5X5X5X5X5X5X5X5X2XoXt < : 1 i C C D J / / / Y K D D J L J t 1 : O.wX5X5X5X5X5X5X5X5X5X5X5X5X5X5X5X5X5X5X5X X",
"5X5X5X5X5X5X5X5X5X5X5X5X5X5X5X5X5X5X5X6.< < 3 i k A B D Y } ....../ D v J J L J 8 3 p ;XqX5X5X5X5X5X5X5X5X5X5X5X5X5X2X5X5X5X5X X",
"5X5X5X5X5X5X5X5X5X5X5X5X5X5X5X5X5X5X5XO.: 3 3 u Z C k k K _ _  .' K l j j l J J y t e T.3X5X5X5X5X5X5X2X3X3X5X5X5X5X5X5X5X5X5X X",
"5X5X5X5X5X5X5X5X5X5X5X5X5X5X5X5X5X5X5XG.< t i k Z k f j l G ^ ' ^ l h j h k Z G k i t ;X3X3X5X5X5X2X2X3X5X5X5X5X5X5X5X5X5X5X5X X",
"5X5X5X5X5X5X5X5X5X5X5X5X5X5X5X5X5X5X5XU.t i i k Z k y f v K K / K D x l l k v G J C t $X3X5X5X5X2X2X2X5X5X5X5X5X5X5X5X5X5X5X5X X",
"5X5X5X5X5X2X5X5X5X5X5X5X5X5X5X5X5X5X5X<Xt C C J v k D D Y / ( Q F n m n n D G G Y Y k  X5X3X3X5X5X5X2X5X5X5X5X5X3X5X5X5X5X5X5X X",
"5X5X5X5X5X5X2X5X5X5X5X5X5X5X3X5X5X3X5XqXC C L J G G ^ ^  .X. .( Q ( ] Q K J G G P _ Z I.3X5X5X5X2X5X5X5X5X5X3X2X2X5X5X5X5X5X2X X",
"5X5X3X5X5X5X5X5X5X5X5X5X5X5X5X5X5X3X5XqXS S ) P Z f a g j Q ( ! W K v q 8 8 8 y ) } Y K.5X5X5X5X5X3X3X3X3X5X5X5X5X5X5X2X2X5X5X X",
"5X5X3X2X5X5X5X5X5X5X5X5X5X5X2X5X5X5XwXwXT R } Y q f f 6 9 f j x j d 9 & 6 j j g v ..} U.3X5X5X5X5X3X2X2X3X3X5X3X2X5X2X5X2X2X5X X",
"5X2X5X5X5X5X5X5X5X2X3X3X3X5X5X5X3X5XqXtX| } } f a j n q % % 9 a a 6 > @ 9 q 9 f k } ..XX5X2X3X2X2X5X2X5X2X3X3X5X2X5X3X3X2X2X2X X",
"5X5X5X5X5X5X2X5X5X3X5X5X5X5X5X5X5X3X5X3XI...^ a 9 q , > > @ > g n 9 # 1 1 + A , f K ..OX@X3X3X3X2X2X2X2X2X3X2X5X3X5X3X3X2X2X3X X",
"3X5X5X5X5X5X5X5X5X3X5X3X3X3X5X5X5X3X;XK.K.} Z q 4 c , 8 Z 4 6 b ! d 9 f v q f h h v } ..C K.2X2X3X5X3X5X2X2X2X5X3X5X3X2X2X2X2X X",
"5X5X5X5X2X2X2X5X5X2X2X5X3X5X3X3X2X2XI.u J ' k f l 9 y k 4 d s z ~ z a a $ & 4 g n D _ l y K.3X3X2X3X3X3X2X2X2X3X3X3X3X3X2X3X5X X",
"3X3X2X2X2X5X2X5X5X5X5X5X2X5X3X5X3X5X| f k / n x j j d d m E d m ` M x W m z n n D G / v y L.2X3X2X3X5X2X5X3X3X3X3X5X3X3X2X3X3X X",
"5X5X5X2X5X2X2X2X2X2X2X2X5X2X3X3X2X6XR 9 9 ( D n E ! ! ` ] m M W ` E z m E W E E F D ^ G 8 } 5X3X3X2X2X3X2X2X3X3X2X2X3X2X3X2X3X X",
"5X5X3X3X5X5X2X2X5X5X5X5X5X2X2X3X5X3XP f D _ G n F W ` +.! M E W ~ ~ E b z n F m m v P H k ) 5X2X3X5X3X3X2X2X2X3X2X2X2X2X2X3X5X X",
"2X2X2X3X5X3X2X5X5X5X5X5X5X2X3X5X5X8X} l l } Z x b n Q H n Q ! ` @.~ ! Q j d j b b v P f Z ..5X2X3X2X2X2X3X2X2X2X2X2X2X2X2X3X2X X",
"2X2X2X2X3X2X2X3X3X3X3X3X3X3X2X3X3X5XK.G g ' Z j j j f j j 6 a g z j 6 & y f 9 a f l Y h Z W.2X2X3X3X3X3X3X2X2X2X3X2X2X2X2X2X2X X",
"2X2X2X3X2X2X2X3X3X3X3X3X3X3X3X2X3X5X2X} Z } J k f a d n l $ @ @ @ @ # , y l y q y B Y y } 2X2X3X2X3X2X2X2X2X2X3X2X2X2X2X2X2X2X X",
"2X3X3X3X2X2X2X3X3X3X3X2X2X3X2X3X3X2X5X;XY X.J k y y j D n k k h & 4 5 9 l v j 9 f k Y oX2X2X2X3X2X3X2X2X2X2X2X2X2X3X2X2X2X2X2X X",
"2X3X3X2X2X3X3X5X3X2X2X2X2X2X3X3X3X2X3X3X5XI.U k f f l j g g Z K K G l v f q q q h k R ;X<X3X<X2X2X2X2X2X2X2X3X2X2X2X2X2X2X2X2X X",
"2X2X2X2X2X2X2X2X2X3X2X2X2X3X3X3X3X3X2X3X3XXXT k h f 9 5 l y q y a 9 9 8 0 0 8 y k Z R 2X2X<X2X2X2X2X2X2X2X2X2X2X,X,X2X2X2X2X2X X",
"2X2X2X2X2X2X2X5X2X2X3X3X<X2X2X3X3X3X3X3X3X3X| Z k k 8 % - # 9 a 9 D v 8 # + > y k k O.5X2X2X3X2X2X2X2X2X2X2X2X2X2X2X2X2X2X2X2X X",
"2X2X2X2X2X2X2X2X2X2X2X2X2X2X2X2X2X2X3X3X<X3XI.S k k 8 8 y y F  .` @.x j u 8 , k u t XX3X2X2X2X2X2X2X2X>X2X2X2X2X2X2X2X2X2X2X2X X",
"2X2X2X2X2X2X2X2X2X3X2X2X2X2X,X2X,X2X3X3X2X2X;XS C Z 9 y h n Q @.`  .K G k y , u 8 A ;X<X2X2X2X2X2X2X2X2X2X2X2X2X2X2X2X2X2X2X2X X",
"2X2X2X2X2X2X2X2X2X2X2X2X3X2X,X2X2X3X3X3X2X3X3XS i u i 0 y 8 5 g l j q 9 8 , 8 , 3 U 3X2X2X2X2X2X2X2X2X2X2X2X2X2X2X2X2X2X,X2X2X X",
"2X2X2X2X2X2X2X2X2X2X2X2X2X2X2X2X2X3X2X2X2X2X3XR 3 1 e , , , % # @ # - 4 , > < 3 3 U 3X2X2X2X2X2X2X2X2X2X,X2X2X2X2X2X2X,X,X,X,X X",
"2X2X2X2X2X2X2X2X2X2X2X2X2X2X2X2X2X3X<X3X3X3X3XG.t : : : : : % # + = = = 1 < : < 8 U 3X2X2X2X2X2X<X2X<X>X2X<X2X>X2X2X2X2X2X2X2X X",
"2X2X2X2X2X2X2X2X2X2X2X2X2X3X3X2X2X3X3X<X2X3X2XK.e : + + : : > # = + = : + + = > 3 U 5X2X2X2X2X>X2X,X<X2X2X2X2X2X2X2X2X2X2X>X,X X",
"2X2X2X2X2X2X2X2X2X,X,X2X2X2X<X<X<X3X2X2X3X3X3XJ.t > = + X . + X . X . . . . : 3 e U 5X2X2X>X2X2X>X,X<X<X>X>X2X>X>X2X2X,X>X2X,X X",
"2X2X2X2X2X2X2X2X,X2X2X2X2X2X2X<X<X2X<X2X<X3X3XJ.i 8 > + + .   . . . . . . # : 3 e T 5X<X,X2X<X>X>X,X>X<X>X<X2X<X<X2X2X,X>X,X,X X",
",X,X2X,X,X2X,X,X2X,X2X2X<X<X2X2X<X2X:X2X<X2X2XK.u 8 8 : + . . .   . . + * : : 7 t J  X;X>X<X>X;X<X<X;X<X;X<X<X<X<X>X>X>X>X>X>X).",
"2X,X2X2X,X,X2X2X<X<X2X<X<X<X3X,X2X<X<X<X3XXXT.F.y 8 8 > : # O . . O + = = : > 8 t Z B 6.>X<X>X;X;X=X;X;X>X>X>X;X>X;X;X;X>X;X;XW.",
"2X,X2X2X<X<X2X2X<X<X<X<X2X<X<X<X>X;X<X1X>XR S Y k y 8 8 < # + O O X + = = : , 8 q c A K.@X<X-X<X;X;X;X;X;X;X;X;X;X;X;X;X;X;X;XW.",
",X,X2X2X<X<X<X<X<X<X<X<X<X>X<X1X:X<X0X,X$XC C J f q 8 8 , : + + + + # : = > , 4 8 k J ).;XP.B.].%X;X*X;X;X;X;X;X;X;X;X;X;X;X;XW.",
">X>X2X<X<X<X>X>X2X<X<X<X<X<X>X;X9X].Q.0X%XB k l y 9 5 8 8 > # + + # = = = > , 5 e i o.&X*X].*.#.$.Z.[.9X$X*X$XOXoX$X;X;X;X;X;XW.",
"<X2X>X>X>X<X2X<X<X<X2X,X<X<X{.S.3.:.5.eX%XU.k g y 9 5 8 , - # + # # # # % , 5 8 e R ^.%X=X7.:.;.i.e.>.N.!.[.*X$X$XOX$X+XoX+X$XW.",
"<X>X>X<X1X<X>X>X,X2X<X0X{.S.2.:.9.w.<.|.-X.XI.y 9 9 4 , , > # # # # # : > , 8 y J..X.X%X'.*.=.=.w.w.t.e.<.3.A.].%X$XoXOXoXoX*XW.",
">X<X<X0X;X;X>X>X;X9X'.C.<.i.d.u.d.w.9.Z.eX$X#XT.y q 4 > > % # # # # # - , , | W._..X$X[.2.0.9.9.w.t.w.w.q.h.p.1.7.Q.9X%XoX$X$XW.",
">X>X;X;X:X2X9X|.S.5.p.t.i.w.9.t.u.d.w.:.].9X.X.XE.T 8 4 > > # @ # @ @ # i I..X.XXX%X].3.:.9.9.w.y.i.w.w.i.i.k.k.r.a.C./.[.oXOXE.",
">X>X>X;X0X[.Z.2.p.h.f.d.d.8.9.-.y.s.q.9.1.'.{..X^. XE.) 7 , # @ # # # O. XXX$X%X9XS.<.w.w.w.w.t.q.w.q.w.w.w.t.u.w.w.i.p.3.[.$XE.",
">X>X<X[.7.2.<.e.w.w.y.t.u.w.f.9.q.t.q.q.;.<.D.[.~.R.R.^.U.Y 5 - - y Y.oX*X-X9X/.3.,.y.d.d.d.u.y.t.y.u.d.d.j.d.j.d.d.j.s.0.5.(.^.",
"<X=X|.2.0.y.i.w.i.w.t.w.y.u.d.s.d.t.q.q.q.w.w.1.D.[.`.^._.XXT.| o.oX%XeX}.Z.1.e.;.9.t.s.y.y.d.d.f.d.f.z.z.j.u.u.u.d.i.=.-.e.a.!.",
"<X{.5.h.g.q.t.w.w.t.t.t.d.s.t.8.w.u.u.d.d.d.g.d.w.>.M.A.!.!.Q.Q.Q.B.A.5.*.;.q.t.9.9.q.q.w.y.d.t.u.d.f.h.f.q.w.;.9.q.0.%.0.9.f.3.",
"eXb.h.y.9.9.9.8.w.q.d.s.v.d.d.t.u.z.m.d.u.t.q.q.q.0.=.%.%.#.#.%.%.;.y.w.,.y.t.d.u.t.l.c.l.d.g.t.g.s.t.h.y.q.y.w.t.t.p.=.q.;.y.*.",
"S.r.g.9.q.8.0.q.w.w.u.t.z.j.t.t.u.z.j.z.j.f.v.z.z.z.z.y.-.=.9.u.u.k.k.,.w.i.u.c.x.l.c.x.x.V.n.w.y.z.u.y.w.u.d.d.d.l.e.-.8.;.q.&.",
"<.u.t.q.-.8.8.q.-.;.w.-.w.u.t.z.u.j.l.x.c.l.z.n.n.c.c.n.u.i.u.d.i.h.w.f.f.f.d.j.d.d.d.d.j.l.z.q.t.k.d.t.q.y.q.g.t.d.-.:.=.-.q.=."
};
