/* XPM */
static char *_164e7155611485fdbc7695fc272073fg7Or6peFwyhJv38R[] = {
/* columns rows colors chars-per-pixel */
"64 64 218 2 ",
"   c None",
".  c #312807",
"X  c #3E3102",
"o  c #28291A",
"O  c #312D1E",
"+  c #3E371C",
"@  c #3A3419",
"#  c #041D2D",
"$  c #0C1C2D",
"%  c #12162E",
"&  c #151C2E",
"*  c #1C1E2B",
"=  c #0D1330",
"-  c #171A33",
";  c #0B0F30",
":  c #06242A",
">  c #0B232B",
",  c #07292A",
"<  c #13242C",
"1  c #1C242A",
"2  c #152929",
"3  c #1B2928",
"4  c #1D2035",
"5  c #252627",
"6  c #2C2C26",
"7  c #23242A",
"8  c #242929",
"9  c #2C2A29",
"0  c #2A2725",
"q  c #322D24",
"w  c #322728",
"e  c #382A28",
"r  c #353122",
"t  c #3B3325",
"y  c #3C3128",
"u  c #2D2E34",
"i  c #24243D",
"p  c #272739",
"a  c #16130E",
"s  c #453A0B",
"d  c #4A3F0B",
"f  c #433B13",
"g  c #463D1B",
"h  c #532828",
"j  c #542927",
"k  c #463826",
"l  c #503027",
"z  c #662627",
"x  c #742527",
"c  c #782627",
"v  c #4D430B",
"b  c #594C05",
"n  c #5C4D0D",
"m  c #52480B",
"M  c #494018",
"N  c #554914",
"B  c #5B520F",
"V  c #6A5807",
"C  c #735E03",
"Z  c #725D09",
"A  c #685912",
"S  c #7C6503",
"D  c #78640A",
"F  c #756619",
"G  c #6B6110",
"H  c #5C5124",
"J  c #684525",
"K  c #764A24",
"L  c #6C5E20",
"P  c #7B673E",
"I  c #1B1D49",
"U  c #1C1D54",
"Y  c #17175A",
"T  c #211F59",
"R  c #1F2046",
"E  c #232348",
"W  c #22205B",
"Q  c #212154",
"!  c #1D1C62",
"~  c #1C196C",
"^  c #17176E",
"/  c #161370",
"(  c #1B197C",
")  c #191877",
"_  c #0F1270",
"`  c #232064",
"'  c #392F7A",
"]  c #463875",
"[  c #47474E",
"{  c #504F4F",
"}  c #7B6641",
"|  c #584967",
" . c #484C63",
".. c #666B7B",
"X. c #6B5755",
"o. c #962426",
"O. c #872527",
"+. c #A92226",
"@. c #B62326",
"#. c #DC1F25",
"$. c #E31E25",
"%. c #EB1E25",
"&. c #F21D25",
"*. c #FC1D25",
"=. c #C52125",
"-. c #DB2025",
";. c #856C03",
":. c #846C07",
">. c #8D7204",
",. c #8F7809",
"<. c #8E7709",
"1. c #957A03",
"2. c #997B04",
"3. c #92790A",
"4. c #927605",
"5. c #947D13",
"6. c #AF651F",
"7. c #865222",
"8. c #9E5A22",
"9. c #A15D22",
"0. c #8D7438",
"q. c #856D38",
"w. c #AE6320",
"e. c #B16321",
"r. c #BB6920",
"t. c #CB6F1E",
"y. c #CD741D",
"u. c #D7741D",
"i. c #EE7F1B",
"p. c #E57B1C",
"a. c #F17F1B",
"s. c #C56B20",
"d. c #826E44",
"f. c #9D8209",
"g. c #9E8414",
"h. c #97801A",
"j. c #978016",
"k. c #A48505",
"l. c #A68B0A",
"z. c #AA8C0A",
"x. c #A5860A",
"c. c #AE910A",
"v. c #B3940C",
"b. c #B79904",
"n. c #A08515",
"m. c #A98D19",
"M. c #A68B16",
"N. c #AE9418",
"B. c #BB9D1C",
"V. c #B69814",
"C. c #BFA01A",
"Z. c #9D8329",
"A. c #B69C2A",
"S. c #BEA424",
"D. c #EE861A",
"F. c #F5821B",
"G. c #FA851A",
"H. c #FD8A1A",
"J. c #F7891A",
"K. c #FE9219",
"L. c #C5A61E",
"P. c #CFB11E",
"I. c #C3A623",
"U. c #C7AB2A",
"Y. c #C8AD35",
"T. c #CDB43B",
"R. c #D3B839",
"E. c #CFB422",
"W. c #CBB446",
"Q. c #D4BA4C",
"!. c #D2B844",
"~. c #CFB956",
"^. c #D4BD57",
"/. c #C3AC4B",
"(. c #D0BD60",
"). c #DEC648",
"_. c #D9C356",
"`. c #E7CE5D",
"'. c #DAC769",
"]. c #DCC973",
"[. c #19158B",
"{. c #0E0892",
"}. c #120B94",
"|. c #120D9E",
" X c #191396",
".X c #16119A",
"XX c #19149A",
"oX c #151194",
"OX c #0B0988",
"+X c #231C92",
"@X c #0A06A4",
"#X c #0E0AA2",
"$X c #0705A8",
"%X c #150FA5",
"&X c #160FAB",
"*X c #1711A3",
"=X c #1812A3",
"-X c #1711AB",
";X c #0201B2",
":X c #332B84",
">X c #76798A",
",X c #9397A7",
"<X c #9C9FB1",
"1X c #A8ACB9",
"2X c #A6A8B5",
"3X c #EBDEA4",
"4X c #EDE1AA",
"5X c #E5D68B",
"6X c #B4B6C1",
"7X c #F3EBC7",
"8X c #FAF5D9",
"9X c #F1EDD8",
"0X c #FAF7E9",
"qX c #ECEDF2",
"wX c #FFFFFE",
"eX c #F9F8F4",
"rX c #EAEAEB",
"tX c #C8C9CD",
/* pixels */
"                                                                                                                                ",
"                                                                                                                                ",
"                                                                                                                                ",
"                                                            S.F G M.                                                            ",
"                                                        N.K K F.F.J y.N                                                         ",
"                                                      S H.i.H.G.F.9 i.J 5                                                       ",
"                                                    R.k w.e.K 7.u.9.w.K J.v                                                     ",
"                                                    5 H.u.y.G.i.i.i.H.p.y u.                                                    ",
"                                            l.x.    t.t.F.H.K.k 1 5 e.7.e.H.f.  V.3.L.                                          ",
"                        U.R.            f XX-X%X~ ).G.7.F.J H.i.i.i.a.w.J.H.B s *X*X&XI U.            B.                        ",
"                      U .X*Xr +       R =XV '.;.*Xf.F.7.F.y G.i.i.i.i.p.J.H.F *Xi   l.~  Xz.    k.V [.*X X2.                    ",
"                    b *Xm N XXY W.I r %XS N.U `.%X:.e.u.G.H.8.y J l k K e.H.b.&X;.6 d R.[.[.Z @ V  X! 1. X^                     ",
"                    + oX  f Y   Y.-X*XO   S ( i oX^.o H.r.u.G.a.i.i.F.y k 8.  - [.r E   z.=Xu v   v _   t [.                    ",
"                    C %X3.      0 XXq 4   Y 6 s !.    9.e q $ G.H.H.1 y K.>.    V q ( Y.C p  X XR.    R.( U                     ",
"                      ! *XI 7 ^ =XT n C               U.r.G.K H.y.D.G.D.B               D C 6 oX*X- p [.*Xx.                    ",
"                        v Y ! d S.                        o s.J.K.D.w N.                        :.- ! 9 V.                      ",
"                  x.3.,.5.h.h.5.3.,.,.,.,.,.,.,.,.,.,.,.,.5.j.n.n.g.h.5.,.,.,.,.,.,.,.,.,.,.,.,.h.h.j.5.3.,.2.                  ",
"                    6 v.g.n.n.g.g.n.n.n.g.g.g.g.g.n.n.n.n.g.g.g.m.m.m.m.m.m.m.m.m.m.m.m.m.m.m.m.m.m.m.m.v.1                     ",
"                      % #X X X X X X X XXXXXXXXX#XXX X X XXX|. X8XwXwXwXwXwXwXwXeX8XwXwXwXwXwXwXwXwXwXwX5 Y.                    ",
"                      :.f..X X X X X X.Xf 2X2X2X>Xb. X X X@Xd 6XOXi Y.wXwXwX].@ ) [.! 2.wXwXwXwXwXwXwXz.N                       ",
"                        % |  X X X X X.Xs qX{ { wX..#X X#Xo wX..9 XX XQ.wX0X^ XXi r ( *XW.wXwXwXwXwX0X%                         ",
"                        U.t #X X X X X.Xs qX] ;X8 ,X|. X0.wXa $XwXV.=XO wX].*XC wXwXQ..Xm wXwXwXwXwXN z.                        ",
"                          g v. X X X X.Xs qX| @Xu ,X|. X3.wXz.{.wXwX/ W wX5X*XV wXwXwX` U wXwXwXwXQ.0                           ",
"                            ; XX X X X.Xs qX| $Xu ,X|. X3.wXl.{.wXwX/ U wX4X=Xm wXwXwX@ C 9XwXwXwX&                             ",
"                            k.D .X X X.Xs rXX X rX,X|. X3.wXl.{.wXwX/ W wX7XXX@ wXwXwXwXwXwXwXwX>.C                             ",
"                              7 0. X X.Xs wXeXeXwX. |. X3.wXl.{.wXwX/ W wX0X[.6 wXwXwXwXwXwXwX7X%                               ",
"                              Q.* @XXX.Xs qXd.| [ >X#X X3.wXl.{.wXwX/ W wXwX( p wXwXwXwXwXwXwXO S.                              ",
"                                V b. X.Xs qX| @Xu 1X.X X3.wXl.{.wXwX/ W wXwX~ E wXwX>.2.eXwXB.+                                 ",
"                                  & :X.Xs qX| #Xu 1X.X X3.wXl.{.wXwX/ W wXwXQ ! wXwX! ( 0XwX%                                   ",
"                              6 5 2 N #Xs qX| #Xu 1X.X X3.wXl.{.wXwX/ U wXwX8  XT.v %XS wXV 3 8 &                               ",
"                            I.h $.$.w m.s qX| #Xu 1XXXm . wXX v b b ~ E b >.k.=X=X%X5 wX'.2 $.$.+.2.                            ",
"                            < %.$.$.%.& +  .| #Xu 1XXXtXwXwXwXwX@X*XXX*X&X:.wX^.;.A.wXwX8 &.$.$.$.#                             ",
"                            $ %.$.$.#.H 3.$X.X#Xu <XXXq.2.wXc.q.^.'./ Q ~./.wXwXwXwXwXk.H o.$.$.$.< '.                          ",
"                            U.e $.$.#   * X. X.X' ] XX X3.wXl.{.wXwX/ W wXwXwXwXwXwX8X%   < %.$.x k.                            ",
"                            Z %.$.#.;.  U.q @X X X X X X3.wXl.{.wXwX/ W wXwXwXwXwXwXg v.  N.o.$.&.M                             ",
"                            < $.$.2       N v. X X X X X3.wXl.{.wXwX/ T wXwXwXwXwXY.O       , $.$.#                             ",
"                            3 $.%.1         = +X X X X X3.wXl.{.wXwX/ W wXwXwXwXwX%         g &.$.h ).                          ",
"                          R.c $.%.C         z.A |. X X X3.wXl.{.wXwX/ W wXwXwXwX;.;.        f.=.$.@.V.                          ",
"                        g , $.$.@.c.          7 Z. X X X3.wXl.{.wXwX/ W wXwXwX3X%           !.z $.%.2 r                         ",
"                        > $.$.$.x W.            % @X X X3.wXl.{.wXwX/ W wXwXwX7 T.            w $.$.$.1                         ",
"                        > $.$.$.z ].            S b. X X3.wXl.{.wXwX) ` wXwXv.f               5 $.$.$.3                         ",
"                        > $.$.$.x W.              * |  X} } P }.wXwX(.(.wX0X&                 w $.$.$.5                         ",
"                        g 3 $.$.@.z.            r h M |. X X X}.wXwXwXwXwXn z 5 !.          R.z $.%.8 q                         ",
"                          E.c $.$.D         Z < &.$.h z. X X X{.wXwXwXwXQ.6 $.&.8 n         f.=.$.=.v.                          ",
"                            3 $.%.&     k.: #.$.$.$.%.$ XX X X}.wXwXwXwX1 &.$.$.$.&.: >.    g %.$.l Q.                          ",
"                            < $.$.2 P.1 O.$.$.$.$.$.j 9 <..X X}.wXwXwX1.6 e %.$.$.$.$.+.& L.: $.$.#                             ",
"                            Z %.$.#.e &.$.$.$.$.@.$ N.  7 d. X}.wXwX7X&   U.& o.$.$.$.$.%.h o.$.&.f                             ",
"                            L.e $.$.$.$.$.$.&.> ;.      _.* @X}.wXwXr B.      f.: #.$.$.$.$.$.$.x l.                            ",
"                            > %.$.$.$.$.&.9 f             V c.{.wXC.f             n 3 &.$.$.$.$.$.<                             ",
"                            & %.$.$.$.#.6 U.                = ' eX%                   t +.$.$.$.$.:                             ",
"                            I.j $.$.$.%.$                   v.N D 4.                  > &.$.$.$.+.1.                            ",
"                              9 w : &.$.&.$ !.                r *                   < &.$.%., 9 &                               ",
"                                  _.: %.$.&., z.                Y.              I., &.$.$.3 U.  ~.                              ",
"                                    I., %.$.$.h q                             M 9 %.$.$.8 2.                                    ",
"                                      I.: %.$.$.&.8 q N.                B.+ 2 %.$.$.%., c.                                      ",
"                                        D $.$.$.$.$.&.+.2 # 9 k k 6 > < o.&.$.$.$.$.&.v                                         ",
"                                        M -.$.$.$.%.$.$.$.%.%.%.&.&.%.$.$.$.%.$.$.$.&.o                                         ",
"                                          A 2 *.9 > z %.%.$.$.$.$.$.%.%.&.c > 2 *.5 N                                           ",
"                                            U.6 C.  U.A 5 : &.$.$.$., 1 n S.  R.1 T.                                            ",
"                                                          S.c %.&.=.>.                                                          ",
"                                                            L F F F                                                             ",
"                                                                                                                                ",
"                                                                                                                                ",
"                                                                                                                                "
};
